<?xml version="1.0" encoding="utf-8"?>
<!-- Generator: Adobe Illustrator 25.2.2, SVG Export Plug-In . SVG Version: 6.00 Build 0)  -->
<svg version="1.1" id="Layer_1" xmlns="http://www.w3.org/2000/svg" xmlns:xlink="http://www.w3.org/1999/xlink" x="0px" y="0px"
	 viewBox="0 0 243.3 211" style="enable-background:new 0 0 243.3 211;" xml:space="preserve">
<style type="text/css">
	.st0{fill:#201F24;}
</style>
<g id="Layer_2_1_">
	<g id="Layer_1-2">
		<path class="st0" d="M214.7,0.1L214.7,0.1L203.3,0v0.1h-11.1V0h-10.8v0.1h-10.8c0,0,0,0,0-0.1h-10.4v0.1h-23.7c0,0,0,0,0-0.1H126
			v0.1h-10.8V0h-10.8v0.1H93.3V0H81.8v0.1H66.6c0,0,0,0,0-0.1H56.2v0.1H45.3V0H34.5v0.1H15.9L0,65.8L27.9,78l22.2,133h143.8
			l22.3-133.4l27.2-11.9l-16-65.7H214.7z M181,191.6H63l-3.7-21.4h125.3L181,191.6z M193,117.8H51l-9.3-53.5
			C59,86,88.5,100.2,122,100.2s63-14.2,80.3-35.8L193,117.8z M122,81.7c-44.1,0-80.4-27.2-85.1-62.3h170.2
			C202.4,54.5,166.1,81.7,122,81.7L122,81.7z"/>
	</g>
</g>
</svg>
