<svg xmlns="http://www.w3.org/2000/svg" width="235.43" height="221.38" viewBox="0 0 235.43 221.38">
  <defs>
    <style>
      .cls-1 {
        fill: #201f24;
        fill-rule: evenodd;
      }
    </style>
  </defs>
  <g id="Layer_2" data-name="Layer 2">
    <g id="Layer_1-2" data-name="Layer 1">
      <path class="cls-1" d="M173.41,57.06A28.62,28.62,0,0,1,200.7,85.64H186.44a14.38,14.38,0,0,0-9.18-13.4,87.06,87.06,0,0,1,1,13.4H164.05a71.39,71.39,0,1,0-142.77,0H7A85.63,85.63,0,0,1,158,30.27a57.16,57.16,0,0,1,71.23,55.37H215a42.91,42.91,0,0,0-48-42.57,84.49,84.49,0,0,1,6.43,14ZM64.05,85.64h0a28.62,28.62,0,1,1,57.23,0H107a14.36,14.36,0,0,0-28.72,0H64.05Zm-28.52,0a57.13,57.13,0,0,1,114.26,0H135.53a42.87,42.87,0,0,0-85.74,0Zm199.9,10a117.65,117.65,0,0,1-56.31,100.44v25.27H56.31V196.11A117.67,117.67,0,0,1,0,95.67Zm-214,13.38a97.21,97.21,0,0,0,96.26,83.8,98.47,98.47,0,0,0,11.19-.64,97.22,97.22,0,0,1-85.08-83.16Z"/>
    </g>
  </g>
</svg>
