<?xml version="1.0" encoding="utf-8"?>
<!-- Generator: Adobe Illustrator 25.2.2, SVG Export Plug-In . SVG Version: 6.00 Build 0)  -->
<svg version="1.1" id="a1a6db26-22e8-42d8-9ccb-d7b510e769d5"
	 xmlns="http://www.w3.org/2000/svg" xmlns:xlink="http://www.w3.org/1999/xlink" x="0px" y="0px" viewBox="0 0 750 750"
	 style="enable-background:new 0 0 750 750;" xml:space="preserve">
<style type="text/css">
	.st0{fill-rule:evenodd;clip-rule:evenodd;}
</style>
<g id="b9ded027-e2a6-4498-812d-4b54eb991fd0">
	<path id="b7eddb56-9dff-4817-9ca0-c70a480136f9" class="st0" d="M375,82.9c47.2-1.8,94.4-0.5,141.5,3.9
		c22.8-0.3,45.5,3.7,66.8,11.8c29.5,13.7,53.1,37.4,66.8,66.9c8.1,21.3,12.1,44,11.8,66.8c0,35.4,3.9,47.2,3.9,141.5
		c1.8,47.2,0.5,94.5-3.9,141.5c0.3,22.8-3.7,45.5-11.8,66.8c-13.7,29.4-37.4,53.1-66.8,66.8c-21.3,8.1-44,12.1-66.8,11.8
		c-35.4,0-47.2,3.9-141.5,3.9c-47.2,1.8-94.5,0.5-141.5-3.9c-22.8,0.3-45.5-3.7-66.8-11.8c-29.4-13.7-53.1-37.4-66.8-66.8
		c-8.1-21.3-12.1-44-11.8-66.8c0-35.4-3.9-47.2-3.9-141.5c-1.8-47.2-0.5-94.5,3.9-141.5c-0.3-22.8,3.7-45.5,11.7-66.8
		c6.9-14.6,16.2-27.9,27.5-39.4c9.2-13.8,23.3-23.6,39.4-27.5c21.3-8.1,44-12.1,66.8-11.8C280.6,82.4,327.8,81.1,375,82.9 M375,20
		c-48.5-1.8-97.1-0.5-145.5,3.9c-29.5-0.1-58.8,5.3-86.5,15.7C95.2,56.1,57.5,93.8,41,141.7c-12.4,27.1-17.9,56.9-15.8,86.6
		c-4.3,48.4-5.6,96.9-3.9,145.5c-1.8,48.5-0.5,97.1,3.9,145.5c-0.1,29.5,5.3,58.8,15.7,86.5C57.4,653.7,95,691.4,143,707.8
		c27.6,10.5,56.9,15.8,86.5,15.7c48.4,4.3,97,5.6,145.5,3.9c48.5,1.7,97.1,0.5,145.5-3.9c29.5,0.1,58.8-5.3,86.5-15.7
		c48-16.5,85.7-54.2,102.2-102.2c10.5-27.6,15.8-56.9,15.8-86.4c0-39.3,3.9-51.1,3.9-145.5c1.8-48.5,0.5-97.1-3.9-145.5
		c0-29.5-5.3-58.8-15.8-86.4C692.5,94,654.8,56.4,606.9,39.8C579.3,29.4,550,24,520.4,24.1c-48.4-4.3-96.9-5.6-145.5-3.9 M375,193.2
		c-98.2-1.6-179.1,76.7-180.8,175c0,1.9,0,3.9,0,5.8c0.1,99.9,81.1,180.7,180.9,180.7c99.9-0.1,180.7-81.1,180.7-180.9
		c-0.1-99.8-81-180.7-180.8-180.7l0,0 M375,491.6c-63.9,1.2-116.7-49.7-117.9-113.7c0-1.4,0-2.8,0-4.2
		c-1.2-63.9,49.7-116.7,113.7-117.9h4.3c63.9-1.1,116.7,49.7,117.9,113.7c0,1.4,0,2.8,0,4.2c1.1,63.9-49.7,116.7-113.7,117.9
		L375,491.6 M563.6,141.9c-23.9,0-43.3,19.3-43.3,43.2c0,23.9,19.3,43.3,43.2,43.3s43.3-19.3,43.3-43.2c0,0,0,0,0,0l0,0
		C606.6,161.3,587.4,142.1,563.6,141.9"/>
</g>
</svg>
