<svg xmlns="http://www.w3.org/2000/svg" width="69.81" height="241.78" viewBox="0 0 69.81 241.78">
  <defs>
    <style>
      .cls-1 {
        fill: #201f24;
        fill-rule: evenodd;
      }
    </style>
  </defs>
  <g id="Layer_2" data-name="Layer 2">
    <g id="Layer_1-2" data-name="Layer 1">
      <g>
        <path class="cls-1" d="M57.13,234.75,69.81,6.43C70,3.05,66.44.23,62.16.17L50.47,0c-4.29-.06-7.93,2.65-7.93,6l2,228.48c0,3.38,1.36,7.2,5.64,7.26h1c4.29.06,5.78-3.65,5.94-7Z"/>
        <path class="cls-1" d="M12.68,234.75,0,6.43C-.15,3.05,3.37.24,7.65.17L19.34,0c4.28-.06,7.93,2.65,7.93,6l-2,228.48c0,3.38-1.36,7.2-5.64,7.26h-1c-4.29.07-5.78-3.65-5.94-7Z"/>
      </g>
    </g>
  </g>
</svg>
