<svg xmlns="http://www.w3.org/2000/svg" width="261.38" height="295.65" viewBox="0 0 261.38 295.65">
  <defs>
    <style>
      .cls-1 {
        fill: #e8534e;
      }

      .cls-2 {
        fill: #201f24;
        fill-rule: evenodd;
      }
    </style>
  </defs>
  <g id="Layer_2" data-name="Layer 2">
    <g id="Layer_1-2" data-name="Layer 1">
      <g>
        <circle class="cls-1" cx="130.69" cy="164.97" r="130.69"/>
        <g>
          <path class="cls-2" d="M152.91,234.75,165.59,6.43c.16-3.38-3.36-6.2-7.65-6.26L146.25,0c-4.28-.06-7.93,2.65-7.93,6l2,228.48c0,3.38,1.36,7.2,5.65,7.26h1c4.29.06,5.78-3.65,5.94-7Z"/>
          <path class="cls-2" d="M108.47,234.75,95.79,6.43C95.63,3.05,99.15.24,103.43.17L115.12,0c4.29-.06,7.94,2.65,7.94,6l-2,228.48c0,3.38-1.37,7.2-5.65,7.26h-1c-4.28.07-5.78-3.65-5.93-7Z"/>
        </g>
      </g>
    </g>
  </g>
</svg>
