<svg xmlns="http://www.w3.org/2000/svg" width="185.86" height="185.86" viewBox="0 0 185.86 185.86">
  <defs>
    <style>
      .cls-1 {
        fill: #201f24;
        fill-rule: evenodd;
      }
    </style>
  </defs>
  <g id="Layer_2" data-name="Layer 2">
    <g id="Layer_1-2" data-name="Layer 1">
      <path class="cls-1" d="M92.93,185.86a92.93,92.93,0,1,1,92.93-92.93,92.93,92.93,0,0,1-92.93,92.93Zm0-61.88a31.05,31.05,0,1,1,31.05-31,31.06,31.06,0,0,1-31,31.05Zm0-15.47a15.58,15.58,0,1,1,15.58-15.58,15.59,15.59,0,0,1-15.58,15.58Zm0,46.41a62,62,0,1,1,62-62,62,62,0,0,1-62,62Zm0-15.47a46.52,46.52,0,1,1,46.52-46.52,46.52,46.52,0,0,1-46.52,46.52Zm0,30.94a77.46,77.46,0,1,1,77.46-77.46,77.47,77.47,0,0,1-77.46,77.46Z"/>
    </g>
  </g>
</svg>
