<?xml version="1.0" encoding="utf-8"?>
<!-- Generator: Adobe Illustrator 25.2.2, SVG Export Plug-In . SVG Version: 6.00 Build 0)  -->
<svg version="1.1" id="aa26e0be-9258-4431-8251-1228b9aad27b"
	 xmlns="http://www.w3.org/2000/svg" xmlns:xlink="http://www.w3.org/1999/xlink" x="0px" y="0px" viewBox="0 0 750 750"
	 style="enable-background:new 0 0 750 750;" xml:space="preserve">
<path id="a6d1175e-77c9-496c-afd2-62b5f211431b" class="st0" d="M242.7,667.7c272.7,0,421-224.4,421-421v-20.1
	c28-21.3,52.4-47,72.2-76.2c-26.9,11.7-55.2,19.8-84.3,24.1c29.9-18.7,52.5-47,64.2-80.2c-29,16.1-60,28.3-92.2,36.1
	C596.1,99.5,556.7,82,515.3,82.3c-81.4,1.2-147.2,66.9-148.4,148.4c-0.9,10.9,0.5,21.8,4.1,32.1C251.7,257,140.6,200,66.3,106.4
	c-13.2,23.2-20.1,49.4-20,76c1.1,49.1,24.7,94.9,64.1,124.3c-24.1-0.5-47.6-7.4-68.2-20.1l0,0C42.2,357.5,92.8,418.3,162.6,431
	c-13.1,3.5-26.6,4.9-40.1,4c-9.5,0.6-19.1-0.7-28.1-4c20.1,60.9,76.2,102.6,140.3,104.2c-52.7,41.2-117.5,63.7-184.4,64.1
	c-12.2,0.7-24.4-0.6-36.1-3.9C80.6,643.6,160.8,668.9,242.7,667.7"/>
</svg>
